<svg width="40" height="40" viewBox="0 0 40 40" fill="none" xmlns="http://www.w3.org/2000/svg">
<path d="M16 30C16.5523 30 17 29.5523 17 29C17 28.4477 16.5523 28 16 28C15.4477 28 15 28.4477 15 29C15 29.5523 15.4477 30 16 30Z" stroke="#333333" stroke-width="1.13" stroke-linecap="round"/>
<path d="M27 30C27.5523 30 28 29.5523 28 29C28 28.4477 27.5523 28 27 28C26.4477 28 26 28.4477 26 29C26 29.5523 26.4477 30 27 30Z" stroke="#333333" stroke-width="1.13" stroke-linecap="round"/>
<path d="M10.05 10.05H12.05L14.71 22.47C14.8076 22.9248 15.0607 23.3315 15.4258 23.6198C15.7908 23.9082 16.245 24.0603 16.71 24.05H26.49C26.9452 24.0493 27.3865 23.8933 27.7411 23.6078C28.0956 23.3224 28.3422 22.9245 28.4401 22.48L30.09 15.05H13.12" stroke="#333333" stroke-width="1.13" stroke-linecap="round"/>
</svg>
