<svg width="32" height="32" viewBox="0 0 32 32" fill="none" xmlns="http://www.w3.org/2000/svg">
<rect width="32" height="32" rx="16" fill="#27C440"/>
<g clip-path="url(#clip0_1715_427)">
<path d="M13.3334 22.6667C13.7015 22.6667 14 22.3682 14 22C14 21.6318 13.7015 21.3333 13.3334 21.3333C12.9652 21.3333 12.6667 21.6318 12.6667 22C12.6667 22.3682 12.9652 22.6667 13.3334 22.6667Z" stroke="white" stroke-width="1.13" stroke-linecap="round"/>
<path d="M20.6667 22.6667C21.0349 22.6667 21.3333 22.3682 21.3333 22C21.3333 21.6318 21.0349 21.3333 20.6667 21.3333C20.2985 21.3333 20 21.6318 20 22C20 22.3682 20.2985 22.6667 20.6667 22.6667Z" stroke="white" stroke-width="1.13" stroke-linecap="round"/>
<path d="M9.36664 9.36667H10.7L12.4733 17.6467C12.5384 17.9499 12.7071 18.221 12.9504 18.4132C13.1938 18.6055 13.4966 18.7069 13.8066 18.7H20.3266C20.6301 18.6995 20.9243 18.5955 21.1607 18.4052C21.397 18.2149 21.5614 17.9497 21.6266 17.6533L22.7266 12.7H11.4133" stroke="white" stroke-width="1.13" stroke-linecap="round"/>
</g>
<defs>
<clipPath id="clip0_1715_427">
<rect width="16" height="16" fill="white" transform="translate(8 8)"/>
</clipPath>
</defs>
</svg>
