<svg width="20" height="20" viewBox="0 0 20 20" fill="none" xmlns="http://www.w3.org/2000/svg">
<path fill-rule="evenodd" clip-rule="evenodd" d="M2.53491 14C2.53491 13.7432 2.7431 13.535 2.99991 13.535L12.9999 13.535C13.2567 13.535 13.4649 13.7432 13.4649 14C13.4649 14.2568 13.2567 14.465 12.9999 14.465L2.99991 14.465C2.7431 14.465 2.53491 14.2568 2.53491 14Z" fill="#333333"/>
<path fill-rule="evenodd" clip-rule="evenodd" d="M2.53491 11C2.53491 10.7432 2.7431 10.535 2.99991 10.535L16.9999 10.535C17.2567 10.535 17.4649 10.7432 17.4649 11C17.4649 11.2568 17.2567 11.465 16.9999 11.465L2.99991 11.465C2.7431 11.465 2.53491 11.2568 2.53491 11Z" fill="#333333"/>
<path fill-rule="evenodd" clip-rule="evenodd" d="M14.5349 14C14.5349 13.7432 14.7431 13.535 14.9999 13.535H16.9999C17.2567 13.535 17.4649 13.7432 17.4649 14C17.4649 14.2568 17.2567 14.465 16.9999 14.465H14.9999C14.7431 14.465 14.5349 14.2568 14.5349 14Z" fill="#333333"/>
<path fill-rule="evenodd" clip-rule="evenodd" d="M14.5349 17C14.5349 16.7432 14.7431 16.535 14.9999 16.535H16.9999C17.2567 16.535 17.4649 16.7432 17.4649 17C17.4649 17.2568 17.2567 17.465 16.9999 17.465H14.9999C14.7431 17.465 14.5349 17.2568 14.5349 17Z" fill="#333333"/>
<path fill-rule="evenodd" clip-rule="evenodd" d="M2.53491 17C2.53491 16.7432 2.7431 16.535 2.99991 16.535L12.9999 16.535C13.2567 16.535 13.4649 16.7432 13.4649 17C13.4649 17.2568 13.2567 17.465 12.9999 17.465L2.99991 17.465C2.7431 17.465 2.53491 17.2568 2.53491 17Z" fill="#333333"/>
<path fill-rule="evenodd" clip-rule="evenodd" d="M9.99991 5.465C6.94302 5.465 4.46491 7.94311 4.46491 11H3.53491C3.53491 7.42948 6.42939 4.535 9.99991 4.535C13.5704 4.535 16.4649 7.42948 16.4649 11H15.5349C15.5349 7.94311 13.0568 5.465 9.99991 5.465Z" fill="#333333"/>
<path fill-rule="evenodd" clip-rule="evenodd" d="M8.93086 7.11631C9.02722 7.35436 8.91237 7.62545 8.67432 7.72182C7.978 8.00369 7.39116 8.50162 6.9977 9.13271C6.86183 9.35064 6.57502 9.41716 6.35709 9.28129C6.13917 9.14542 6.07265 8.85861 6.20852 8.64069C6.70481 7.84465 7.44492 7.21618 8.32535 6.85977C8.5634 6.76341 8.83449 6.87826 8.93086 7.11631Z" fill="#333333"/>
<path fill-rule="evenodd" clip-rule="evenodd" d="M9.99991 4.465C9.70444 4.465 9.46491 4.70453 9.46491 5H8.53491C8.53491 4.19091 9.19081 3.535 9.99991 3.535C10.809 3.535 11.4649 4.19091 11.4649 5H10.5349C10.5349 4.70453 10.2954 4.465 9.99991 4.465Z" fill="#333333"/>
</svg>
