<svg width="64" height="64" viewBox="0 0 64 64" fill="none" xmlns="http://www.w3.org/2000/svg">
<path fill-rule="evenodd" clip-rule="evenodd" d="M22.7411 6.93233C23.0804 7.70983 22.7252 8.61517 21.9477 8.95446C18.1853 10.5963 14.8824 13.1348 12.3278 16.348C9.7731 19.5612 8.04446 23.3513 7.29296 27.3869C6.54146 31.4225 6.78999 35.5808 8.01682 39.4981C9.24364 43.4155 11.4114 46.9727 14.3306 49.8588C17.2498 52.7448 20.8315 54.8718 24.7627 56.0538C28.6938 57.2359 32.8546 57.4369 36.8814 56.6393C40.9082 55.8418 44.6783 54.07 47.8621 51.4788C51.0459 48.8876 53.5465 45.556 55.1453 41.7751C55.4757 40.9938 56.3769 40.6282 57.1582 40.9586C57.9395 41.289 58.3051 42.1902 57.9747 42.9716C56.1805 47.2146 53.3742 50.9535 49.8012 53.8615C46.2282 56.7694 41.9973 58.7578 37.4782 59.6528C32.9592 60.5478 28.2898 60.3222 23.8781 58.9957C19.4664 57.6692 15.4469 55.2822 12.1708 52.0434C8.89477 48.8045 6.46201 44.8125 5.08522 40.4162C3.70842 36.02 3.42951 31.3534 4.27288 26.8245C5.11624 22.2956 7.05619 18.0422 9.92314 14.4362C12.7901 10.8302 16.4967 7.9814 20.719 6.13887C21.4965 5.79958 22.4018 6.15483 22.7411 6.93233Z" fill="#333333"/>
<path fill-rule="evenodd" clip-rule="evenodd" d="M30.9139 4.24722C31.2019 3.95916 31.5926 3.79733 32 3.79733C35.7036 3.79733 39.371 4.52682 42.7927 5.94413C46.2144 7.36145 49.3234 9.43884 51.9423 12.0577C54.5612 14.6766 56.6386 17.7856 58.0559 21.2073C59.4732 24.629 60.2027 28.2964 60.2027 32C60.2027 32.8483 59.515 33.536 58.6667 33.536H32C31.1517 33.536 30.464 32.8483 30.464 32V5.33333C30.464 4.92596 30.6258 4.53527 30.9139 4.24722ZM33.536 6.91632V30.464H57.0837C56.9138 27.6891 56.2843 24.9579 55.2177 22.3829C53.9548 19.3339 52.1037 16.5635 49.7701 14.2299C47.4365 11.8963 44.6661 10.0452 41.6171 8.78229C39.0421 7.71568 36.3109 7.08623 33.536 6.91632Z" fill="#333333"/>
</svg>
