<svg width="64" height="64" viewBox="0 0 64 64" fill="none" xmlns="http://www.w3.org/2000/svg">
<path fill-rule="evenodd" clip-rule="evenodd" d="M22.304 41.408C19.7094 41.408 17.235 42.3903 15.4216 44.1173C13.6108 45.8419 12.608 48.1649 12.608 50.5707C12.608 51.5619 13.0208 52.5284 13.7814 53.2528C14.5446 53.9796 15.5946 54.4 16.704 54.4H50.304C51.4134 54.4 52.4634 53.9796 53.2266 53.2528C53.9872 52.5284 54.4 51.5619 54.4 50.5707C54.4 48.1649 53.3972 45.8419 51.5864 44.1173C49.773 42.3903 47.2986 41.408 44.704 41.408H22.304ZM13.3472 41.9391C15.7346 39.6653 18.9577 38.4 22.304 38.4H44.704C48.0503 38.4 51.2734 39.6653 53.6608 41.9391C56.0508 44.2152 57.408 47.3185 57.408 50.5707C57.408 52.4084 56.6408 54.1551 55.301 55.431C53.9638 56.7046 52.1651 57.408 50.304 57.408H16.704C14.8429 57.408 13.0442 56.7046 11.707 55.431C10.3672 54.1551 9.6 52.4084 9.6 50.5707C9.6 47.3185 10.9572 44.2152 13.3472 41.9391Z" fill="#333333"/>
<path fill-rule="evenodd" clip-rule="evenodd" d="M33.504 12.608C29.0327 12.608 25.408 16.2327 25.408 20.704C25.408 25.1753 29.0327 28.8 33.504 28.8C37.9753 28.8 41.6 25.1753 41.6 20.704C41.6 16.2327 37.9753 12.608 33.504 12.608ZM22.4 20.704C22.4 14.5714 27.3714 9.6 33.504 9.6C39.6366 9.6 44.608 14.5714 44.608 20.704C44.608 26.8366 39.6366 31.808 33.504 31.808C27.3714 31.808 22.4 26.8366 22.4 20.704Z" fill="#333333"/>
</svg>
