<svg width="16" height="16" viewBox="0 0 16 16" fill="none" xmlns="http://www.w3.org/2000/svg">
<g clip-path="url(#clip0_1876_1788)">
<path d="M11.3335 1.99998C11.5033 1.79933 11.7133 1.63601 11.9502 1.52043C12.187 1.40485 12.4456 1.33953 12.7093 1.32865C12.973 1.31777 13.236 1.36156 13.4818 1.45723C13.7275 1.55291 13.9504 1.69836 14.1364 1.88432C14.3223 2.07029 14.4672 2.29268 14.5619 2.53734C14.6565 2.78199 14.6987 3.04353 14.6859 3.3053C14.6731 3.56706 14.6055 3.8233 14.4874 4.05769C14.3694 4.29207 14.2034 4.49947 14.0002 4.66664L5.00016 13.6666L1.3335 14.6666L2.3335 11L11.3335 1.99998Z" stroke="#8B8B8B" stroke-width="1.13" stroke-linecap="round" stroke-linejoin="round"/>
<path d="M10 3.33331L12.6667 5.99998" stroke="#8B8B8B" stroke-width="1.13" stroke-linecap="round" stroke-linejoin="round"/>
</g>
<defs>
<clipPath id="clip0_1876_1788">
<rect width="16" height="16" fill="white"/>
</clipPath>
</defs>
</svg>
