<svg width="21" height="20" viewBox="0 0 21 20" fill="none" xmlns="http://www.w3.org/2000/svg">
<path d="M18.3515 16.672L18.3514 16.672L18.3528 16.6742C18.3822 16.7204 18.402 16.7721 18.4109 16.8262C18.4198 16.8803 18.4176 16.9356 18.4046 16.9888C18.3916 17.042 18.3679 17.092 18.335 17.1359C18.3021 17.1797 18.2607 17.2164 18.2133 17.2438C18.1659 17.2713 18.1134 17.2888 18.059 17.2954C18.0046 17.302 17.9494 17.2976 17.8968 17.2823C17.8442 17.267 17.7952 17.2413 17.7528 17.2066C17.7104 17.1719 17.6754 17.129 17.65 17.0804L17.6501 17.0804L17.6487 17.0781C16.137 14.4663 13.4651 12.9063 10.5001 12.9063C7.53512 12.9063 4.86319 14.4663 3.35149 17.0781L3.35144 17.0781L3.35021 17.0804C3.32481 17.129 3.28985 17.1719 3.24744 17.2066C3.20503 17.2413 3.15604 17.267 3.10342 17.2823C3.0508 17.2976 2.99564 17.302 2.94125 17.2954C2.88686 17.2888 2.83436 17.2713 2.78693 17.2438C2.73949 17.2164 2.69809 17.1797 2.66522 17.1359C2.63235 17.092 2.60868 17.042 2.59565 16.9888C2.58261 16.9356 2.58048 16.8803 2.58937 16.8262C2.59826 16.7721 2.618 16.7204 2.64739 16.6742L2.64744 16.6742L2.64875 16.6719C3.87592 14.5506 5.80179 13.0635 8.03893 12.4336L8.19296 12.3903L8.05031 12.3177C6.96741 11.7673 6.10145 10.8681 5.59208 9.76529C5.08272 8.66246 4.95962 7.42021 5.24264 6.23885C5.52567 5.05749 6.19832 4.00588 7.15213 3.25359C8.10595 2.5013 9.28533 2.09216 10.5001 2.09216C11.7149 2.09216 12.8943 2.5013 13.8481 3.25359C14.8019 4.00588 15.4746 5.05749 15.7576 6.23885C16.0406 7.42021 15.9175 8.66246 15.4082 9.76529C14.8988 10.8681 14.0328 11.7673 12.9499 12.3177L12.8073 12.3902L12.9613 12.4336C15.1984 13.0643 17.1243 14.5514 18.3515 16.672ZM5.90637 7.50003V7.5001C5.90784 8.71797 6.39228 9.88554 7.25344 10.7467C8.11461 11.6079 9.28217 12.0923 10.5 12.0938H10.5001C11.4087 12.0938 12.2968 11.8244 13.0523 11.3196C13.8077 10.8148 14.3965 10.0974 14.7442 9.25798C15.0919 8.41858 15.1829 7.49493 15.0056 6.60383C14.8283 5.71273 14.3908 4.8942 13.7484 4.25175C13.1059 3.60931 12.2874 3.1718 11.3963 2.99454C10.5052 2.81729 9.58156 2.90826 8.74217 3.25595C7.90277 3.60365 7.18532 4.19244 6.68055 4.94788C6.17579 5.70331 5.90637 6.59147 5.90637 7.50003Z" fill="#2F80ED" stroke="#2F80ED" stroke-width="0.125"/>
</svg>
