<svg width="16" height="16" viewBox="0 0 16 16" fill="none" xmlns="http://www.w3.org/2000/svg">
<path d="M13.3332 6.66668C13.3332 10.6667 7.99984 14.6667 7.99984 14.6667C7.99984 14.6667 2.6665 10.6667 2.6665 6.66668C2.6665 5.25219 3.22841 3.89563 4.2286 2.89544C5.22879 1.89525 6.58535 1.33334 7.99984 1.33334C9.41432 1.33334 10.7709 1.89525 11.7711 2.89544C12.7713 3.89563 13.3332 5.25219 13.3332 6.66668Z" stroke="#333333" stroke-width="1.13" stroke-linecap="round" stroke-linejoin="round"/>
<path d="M8 8.66666C9.10457 8.66666 10 7.77123 10 6.66666C10 5.56209 9.10457 4.66666 8 4.66666C6.89543 4.66666 6 5.56209 6 6.66666C6 7.77123 6.89543 8.66666 8 8.66666Z" stroke="#333333" stroke-width="1.13" stroke-linecap="round" stroke-linejoin="round"/>
</svg>
