<svg width="54" height="40" viewBox="0 0 54 40" fill="none" xmlns="http://www.w3.org/2000/svg">
<path fill-rule="evenodd" clip-rule="evenodd" d="M49.8747 4.14062C49.945 4.14062 50.1247 4.24219 50.5153 4.59375L50.4919 12.7891C50.4684 20.8281 50.4684 20.9766 50.3122 21.1328C50.1637 21.2812 50.0387 21.2891 47.7966 21.3047C46.1559 21.3203 45.32 21.2969 45.0466 21.2344C44.8122 21.1797 44.57 21.0469 44.4372 20.9219C44.2341 20.7109 44.2262 20.6641 44.2262 19.9375C44.2262 19.5234 44.2809 18.6172 44.3434 17.9297C44.4059 17.2422 44.5466 16.1484 44.6559 15.5078C44.7653 14.8594 44.9684 13.8438 45.1169 13.2422C45.2653 12.6406 45.5309 11.7109 45.7106 11.1719C45.8981 10.6328 46.2028 9.82812 46.3903 9.375C46.5856 8.92188 46.9294 8.20312 47.1559 7.77344C47.3825 7.34375 47.8122 6.625 48.1091 6.17188C48.4059 5.71875 48.8434 5.125 49.07 4.84375C49.3044 4.5625 49.5466 4.29687 49.6169 4.24219C49.6794 4.1875 49.7966 4.14062 49.8669 4.14062H49.8747ZM4.00228 5.46875C4.11946 5.46875 4.29915 5.54688 4.5804 5.82031L4.57259 11.7188H5.58821V5.78125L5.80696 5.625C5.92415 5.53125 6.09603 5.46094 6.19759 5.46875C6.29134 5.46875 6.4554 5.55469 6.76009 5.85938V11.7188H7.54134V8.75C7.54134 5.88281 7.54915 5.77344 7.69759 5.625C7.78352 5.53906 7.9554 5.46875 8.08821 5.46875C8.23665 5.46875 8.3929 5.53906 8.71321 5.85938V11.7188H9.65071L9.68977 5.875L9.88509 5.67187C10.0023 5.54687 10.1663 5.46875 10.2992 5.46875C10.4163 5.46875 10.596 5.55469 10.9007 5.85938V9.3125C10.9007 12.1562 10.8773 12.8672 10.7757 13.2812C10.7132 13.5625 10.5413 14 10.4085 14.25C10.2679 14.5 10.0492 14.8359 9.91634 14.9922C9.78353 15.1484 9.48665 15.4141 9.25228 15.5859C9.02571 15.7578 8.60384 15.9766 7.81477 16.2422L7.77571 21.6406H8.11165C8.29134 21.6406 8.5179 21.6953 8.61946 21.7578C8.71321 21.8203 8.82259 22.0078 8.86165 22.1641C8.90071 22.3281 9.13509 24.8906 9.38509 27.8516C9.83821 33.2109 9.83821 33.2422 9.7054 33.75C9.62728 34.0312 9.44759 34.4375 9.30696 34.6484C9.15852 34.8672 8.85384 35.1641 8.61946 35.3281C8.3929 35.4844 8.01009 35.6719 7.77571 35.7422C7.51009 35.8281 7.21321 35.8672 6.99446 35.8437C6.79915 35.8203 6.43196 35.7187 6.17415 35.6172C5.86946 35.5 5.5804 35.3047 5.33821 35.0625C5.12728 34.8594 4.86946 34.4844 4.75228 34.2422C4.5804 33.8828 4.53353 33.6562 4.51009 33.125C4.50228 32.7578 4.69759 30.1172 4.94759 27.1875C5.40853 21.9766 5.41634 21.9141 5.59602 21.7734C5.72102 21.6797 5.91634 21.6328 6.52571 21.6406V16.25L6.0804 16.1172C5.8304 16.0391 5.43196 15.8516 5.19759 15.6953C4.96321 15.5469 4.59603 15.2266 4.3929 14.9922C4.18196 14.7578 3.92415 14.3984 3.82259 14.1797C3.72102 13.9688 3.56478 13.5234 3.47884 13.2031C3.33821 12.6641 3.32259 12.3594 3.33821 5.95312L3.55696 5.71094C3.7054 5.54687 3.84603 5.46875 4.00228 5.46875ZM50.4059 22.5391L50.3903 27.7734C50.3669 32.5312 50.3512 33.0312 50.234 33.2812C50.1559 33.4297 49.9684 33.6875 49.8044 33.8516C49.6403 34.0156 49.3825 34.2031 49.234 34.2734C49.0778 34.3516 48.7028 34.4219 48.3747 34.4375C47.8747 34.4609 47.734 34.4375 47.3981 34.2734C47.1794 34.1641 46.8747 33.9219 46.7106 33.7422C46.5309 33.5312 46.3669 33.2266 46.2887 32.9688C46.1715 32.5547 46.1794 32.375 46.6325 27.5938C46.9919 23.7344 47.1169 22.625 47.2106 22.5703C47.2731 22.5234 47.9997 22.5078 50.4059 22.5391ZM47.7966 32.2422C47.82 32.3672 47.8981 32.5234 47.9684 32.5938C48.0387 32.6641 48.1872 32.75 48.2965 32.7734C48.4372 32.8125 48.5544 32.7734 48.7184 32.6406C48.8903 32.5078 48.945 32.3984 48.945 32.1875C48.945 31.9922 48.8903 31.8672 48.7341 31.7344C48.6247 31.6406 48.4606 31.5625 48.3669 31.5625C48.2809 31.5625 48.1012 31.6719 47.9762 31.7969C47.8044 31.9766 47.7575 32.0781 47.7966 32.2422Z" fill="white"/>
<path fill-rule="evenodd" clip-rule="evenodd" d="M27.0833 34.1667C34.217 34.1667 40 28.3837 40 21.25C40 14.1163 34.217 8.33334 27.0833 8.33334C19.9497 8.33334 14.1667 14.1163 14.1667 21.25C14.1667 28.3837 19.9497 34.1667 27.0833 34.1667ZM35.8333 21.25C35.8333 26.0825 31.9158 30 27.0833 30C22.2508 30 18.3333 26.0825 18.3333 21.25C18.3333 16.4175 22.2508 12.5 27.0833 12.5C31.9158 12.5 35.8333 16.4175 35.8333 21.25ZM35 21.25C35 25.6223 31.4555 29.1667 27.0833 29.1667C22.711 29.1667 19.1666 25.6223 19.1666 21.25C19.1666 16.8778 22.711 13.3333 27.0833 13.3333C31.4555 13.3333 35 16.8778 35 21.25Z" fill="white"/>
</svg>
